# xmcd CD database file
#
# Track frame offsets:
#	150
#	16992
#	34880
#	55680
#	76250
#	109422
#	147150
#	169675
#	201810
#	217697
#	233582
#
# Disc length: 3345 seconds
#
# Revision: 1
# Processed by: cddbd v1.5.1PL0 Copyright (c) Steve Scherf et al.
# Submitted via: CDex 1.50
#
DISCID=870d0f0b
DTITLE=Various Artist - Beat Club  CD 2
DYEAR=1995
DGENRE=Rock
TTITLE0=Steanhammer: Junior's waiting
TTITLE1=Steamhammer: When your friend has gone
TTITLE2=Humple pie: Alabama 69
TTITLE3=Humple pie: Natural born woman
TTITLE4=Nice: Hang on a dream
TTITLE5=Steamhammer: Louisiana blues
TTITLE6=Hardin&York: Tomorrow today
TTITLE7=Hardin&York: The pike
TTITLE8=Humple pie: The sad bag of shaky Jake
TTITLE9=Ashton Gardner and Dyke: Rolling home
TTITLE10=Ashton Gardner and Dyke: Billy and his piano
EXTD=YEAR: 1995
EXTT0=
EXTT1=
EXTT2=
EXTT3=
EXTT4=
EXTT5=
EXTT6=
EXTT7=
EXTT8=
EXTT9=
EXTT10=
PLAYORDER=
